{
  "accessors": [
    {
      "bufferView": 0,
      "componentType": 5125,
      "count": 2328,
      "type": "SCALAR"
    },
    {
      "bufferView": 1,
      "componentType": 5126,
      "count": 658,
      "max": [
        0.0553391705515819,
        -0.0825381570935644,
        0.008399586206560509
      ],
      "min": [
        0.04989492061327595,
        -0.08556725858161053,
        -0.008400413369035794
      ],
      "type": "VEC3"
    },
    {
      "bufferView": 2,
      "componentType": 5126,
      "count": 658,
      "max": [
        0.9999995589225648,
        0.99999989898051,
        1.0
      ],
      "min": [
        -0.9925912370875275,
        -1.0,
        -1.0
      ],
      "type": "VEC3"
    },
    {
      "bufferView": 3,
      "componentType": 5126,
      "count": 658,
      "max": [
        0.7562963636219787,
        1.0
      ],
      "min": [
        0.0,
        0.0
      ],
      "type": "VEC2"
    },
    {
      "bufferView": 4,
      "componentType": 5125,
      "count": 2328,
      "type": "SCALAR"
    },
    {
      "bufferView": 5,
      "componentType": 5126,
      "count": 658,
      "max": [
        0.06595082968547285,
        -0.0825382008494323,
        0.008399034997461096
      ],
      "min": [
        0.060506770685246666,
        -0.08556770065038842,
        -0.008400413369035794
      ],
      "type": "VEC3"
    },
    {
      "bufferView": 6,
      "componentType": 5126,
      "count": 658,
      "max": [
        0.9999997072594967,
        0.9999998055919715,
        1.0
      ],
      "min": [
        -0.9926123710677527,
        -0.9999999848509127,
        -1.0
      ],
      "type": "VEC3"
    },
    {
      "bufferView": 7,
      "componentType": 5126,
      "count": 658,
      "max": [
        0.7562963636219787,
        1.0
      ],
      "min": [
        0.0,
        0.0
      ],
      "type": "VEC2"
    },
    {
      "bufferView": 8,
      "componentType": 5125,
      "count": 4596,
      "type": "SCALAR"
    },
    {
      "bufferView": 9,
      "componentType": 5126,
      "count": 1286,
      "max": [
        0.029349120353178562,
        -0.08260180455208342,
        0.008399586206560509
      ],
      "min": [
        0.023121850000980715,
        -0.09052360611346329,
        -0.008400413369035794
      ],
      "type": "VEC3"
    },
    {
      "bufferView": 10,
      "componentType": 5126,
      "count": 1286,
      "max": [
        0.9999998099049066,
        0.99999981966638,
        1.0
      ],
      "min": [
        -0.9999997724489794,
        -0.999999997263411,
        -1.0
      ],
      "type": "VEC3"
    },
    {
      "bufferView": 11,
      "componentType": 5126,
      "count": 1286,
      "max": [
        1.0,
        0.5723365090563705
      ],
      "min": [
        0.0,
        0.0
      ],
      "type": "VEC2"
    },
    {
      "bufferView": 12,
      "componentType": 5125,
      "count": 4596,
      "type": "SCALAR"
    },
    {
      "bufferView": 13,
      "componentType": 5126,
      "count": 1286,
      "max": [
        0.042682249903632105,
        0.014066527968678563,
        0.008399586206560509
      ],
      "min": [
        0.019859032696129694,
        -0.004167431539063307,
        -0.008400413369035794
      ],
      "type": "VEC3"
    },
    {
      "bufferView": 14,
      "componentType": 5126,
      "count": 1286,
      "max": [
        0.9999999999999993,
        0.9999999999999997,
        1.0
      ],
      "min": [
        -0.9999999999999993,
        -0.9999999999999997,
        -1.0
      ],
      "type": "VEC3"
    },
    {
      "bufferView": 15,
      "componentType": 5126,
      "count": 1286,
      "max": [
        0.8764161023468073,
        1.0
      ],
      "min": [
        0.0,
        0.0
      ],
      "type": "VEC2"
    },
    {
      "bufferView": 16,
      "componentType": 5125,
      "count": 4596,
      "type": "SCALAR"
    },
    {
      "bufferView": 17,
      "componentType": 5126,
      "count": 1286,
      "max": [
        -0.018682372569604602,
        0.014473852177138674,
        0.008399586206560502
      ],
      "min": [
        -0.04150558977710702,
        -0.0037601073306031824,
        -0.008400413369035794
      ],
      "type": "VEC3"
    },
    {
      "bufferView": 18,
      "componentType": 5126,
      "count": 1286,
      "max": [
        0.9999999999999993,
        0.9999999999999997,
        1.0
      ],
      "min": [
        -0.9999999999999993,
        -0.9999999999999997,
        -1.0
      ],
      "type": "VEC3"
    },
    {
      "bufferView": 19,
      "componentType": 5126,
      "count": 1286,
      "max": [
        0.8764161023468074,
        1.0
      ],
      "min": [
        0.0,
        0.0
      ],
      "type": "VEC2"
    },
    {
      "bufferView": 20,
      "componentType": 5125,
      "count": 3786,
      "type": "SCALAR"
    },
    {
      "bufferView": 21,
      "componentType": 5126,
      "count": 1065,
      "max": [
        0.007173193179175905,
        -0.08645353063808543,
        0.008399586206560502
      ],
      "min": [
        0.002831005786846752,
        -0.09054509048665214,
        -0.008400413369035794
      ],
      "type": "VEC3"
    },
    {
      "bufferView": 22,
      "componentType": 5126,
      "count": 1065,
      "max": [
        0.9999999999999996,
        0.9999995023813227,
        1.0
      ],
      "min": [
        -0.9999940557823591,
        -0.9999999661941859,
        -1.0
      ],
      "type": "VEC3"
    },
    {
      "bufferView": 23,
      "componentType": 5126,
      "count": 1065,
      "max": [
        0.7008126738674917,
        1.0
      ],
      "min": [
        0.0,
        0.0
      ],
      "type": "VEC2"
    },
    {
      "bufferView": 24,
      "componentType": 5125,
      "count": 3786,
      "type": "SCALAR"
    },
    {
      "bufferView": 25,
      "componentType": 5126,
      "count": 1065,
      "max": [
        -0.05526785274799533,
        -0.08645343294260784,
        0.008400413369035794
      ],
      "min": [
        -0.05961026553923853,
        -0.09054518275376978,
        -0.008400413369035794
      ],
      "type": "VEC3"
    },
    {
      "bufferView": 26,
      "componentType": 5126,
      "count": 1065,
      "max": [
        0.9999999999873619,
        0.9999994973532312,
        1.0
      ],
      "min": [
        -0.9999940384353275,
        -0.9999999674887952,
        -1.0
      ],
      "type": "VEC3"
    },
    {
      "bufferView": 27,
      "componentType": 5126,
      "count": 1065,
      "max": [
        0.7008126738674917,
        1.0
      ],
      "min": [
        0.0,
        0.0
      ],
      "type": "VEC2"
    },
    {
      "bufferView": 28,
      "componentType": 5125,
      "count": 3894,
      "type": "SCALAR"
    },
    {
      "bufferView": 29,
      "componentType": 5126,
      "count": 1091,
      "max": [
        -0.030571092978069897,
        -0.08268652135047273,
        0.008399586206560509
      ],
      "min": [
        -0.03656545317748068,
        -0.09045995865047936,
        -0.008400413369035794
      ],
      "type": "VEC3"
    },
    {
      "bufferView": 30,
      "componentType": 5126,
      "count": 1091,
      "max": [
        0.9999999550540897,
        0.9999912756492914,
        1.0
      ],
      "min": [
        -0.9999999999999996,
        -0.9999919964290345,
        -1.0
      ],
      "type": "VEC3"
    },
    {
      "bufferView": 31,
      "componentType": 5126,
      "count": 1091,
      "max": [
        1.0,
        0.5833582810952389
      ],
      "min": [
        0.0,
        0.0
      ],
      "type": "VEC2"
    },
    {
      "bufferView": 32,
      "componentType": 5125,
      "count": 3894,
      "type": "SCALAR"
    },
    {
      "bufferView": 33,
      "componentType": 5126,
      "count": 1091,
      "max": [
        -0.042622945434135244,
        -0.08268666996871989,
        0.0083990880537907
      ],
      "min": [
        -0.048617163203451025,
        -0.09045987456231026,
        -0.008400413369035794
      ],
      "type": "VEC3"
    },
    {
      "bufferView": 34,
      "componentType": 5126,
      "count": 1091,
      "max": [
        0.9999999648658862,
        0.9999914201523602,
        1.0
      ],
      "min": [
        -0.9999999993966315,
        -0.9999918568425429,
        -1.0
      ],
      "type": "VEC3"
    },
    {
      "bufferView": 35,
      "componentType": 5126,
      "count": 1091,
      "max": [
        1.0,
        0.5833582810952389
      ],
      "min": [
        0.0,
        0.0
      ],
      "type": "VEC2"
    },
    {
      "bufferView": 36,
      "componentType": 5125,
      "count": 22134,
      "type": "SCALAR"
    },
    {
      "bufferView": 37,
      "componentType": 5126,
      "count": 6415,
      "max": [
        0.09999906974732446,
        0.09999916744224917,
        0.008399586206560502
      ],
      "min": [
        -0.09999906974732446,
        -0.09999916744224917,
        -0.008400413369035794
      ],
      "type": "VEC3"
    },
    {
      "bufferView": 38,
      "componentType": 5126,
      "count": 6415,
      "max": [
        1.0,
        1.0,
        1.0
      ],
      "min": [
        -1.0,
        -1.0,
        -1.0
      ],
      "type": "VEC3"
    },
    {
      "bufferView": 39,
      "componentType": 5126,
      "count": 6415,
      "max": [
        1.0,
        0.9846835585355036
      ],
      "min": [
        0.0,
        0.0
      ],
      "type": "VEC2"
    }
  ],
  "asset": {
    "generator": "Adobe Illustrator",
    "version": "2.0"
  },
  "bufferViews": [
    {
      "buffer": 0,
      "byteLength": 9312,
      "target": 34963
    },
    {
      "buffer": 0,
      "byteLength": 7896,
      "byteOffset": 9312,
      "target": 34962
    },
    {
      "buffer": 0,
      "byteLength": 7896,
      "byteOffset": 17208,
      "target": 34962
    },
    {
      "buffer": 0,
      "byteLength": 5264,
      "byteOffset": 25104,
      "target": 34962
    },
    {
      "buffer": 0,
      "byteLength": 9312,
      "byteOffset": 30368,
      "target": 34963
    },
    {
      "buffer": 0,
      "byteLength": 7896,
      "byteOffset": 39680,
      "target": 34962
    },
    {
      "buffer": 0,
      "byteLength": 7896,
      "byteOffset": 47576,
      "target": 34962
    },
    {
      "buffer": 0,
      "byteLength": 5264,
      "byteOffset": 55472,
      "target": 34962
    },
    {
      "buffer": 0,
      "byteLength": 18384,
      "byteOffset": 60736,
      "target": 34963
    },
    {
      "buffer": 0,
      "byteLength": 15432,
      "byteOffset": 79120,
      "target": 34962
    },
    {
      "buffer": 0,
      "byteLength": 15432,
      "byteOffset": 94552,
      "target": 34962
    },
    {
      "buffer": 0,
      "byteLength": 10288,
      "byteOffset": 109984,
      "target": 34962
    },
    {
      "buffer": 0,
      "byteLength": 18384,
      "byteOffset": 120272,
      "target": 34963
    },
    {
      "buffer": 0,
      "byteLength": 15432,
      "byteOffset": 138656,
      "target": 34962
    },
    {
      "buffer": 0,
      "byteLength": 15432,
      "byteOffset": 154088,
      "target": 34962
    },
    {
      "buffer": 0,
      "byteLength": 10288,
      "byteOffset": 169520,
      "target": 34962
    },
    {
      "buffer": 0,
      "byteLength": 18384,
      "byteOffset": 179808,
      "target": 34963
    },
    {
      "buffer": 0,
      "byteLength": 15432,
      "byteOffset": 198192,
      "target": 34962
    },
    {
      "buffer": 0,
      "byteLength": 15432,
      "byteOffset": 213624,
      "target": 34962
    },
    {
      "buffer": 0,
      "byteLength": 10288,
      "byteOffset": 229056,
      "target": 34962
    },
    {
      "buffer": 0,
      "byteLength": 15144,
      "byteOffset": 239344,
      "target": 34963
    },
    {
      "buffer": 0,
      "byteLength": 12780,
      "byteOffset": 254488,
      "target": 34962
    },
    {
      "buffer": 0,
      "byteLength": 12780,
      "byteOffset": 267268,
      "target": 34962
    },
    {
      "buffer": 0,
      "byteLength": 8520,
      "byteOffset": 280048,
      "target": 34962
    },
    {
      "buffer": 0,
      "byteLength": 15144,
      "byteOffset": 288568,
      "target": 34963
    },
    {
      "buffer": 0,
      "byteLength": 12780,
      "byteOffset": 303712,
      "target": 34962
    },
    {
      "buffer": 0,
      "byteLength": 12780,
      "byteOffset": 316492,
      "target": 34962
    },
    {
      "buffer": 0,
      "byteLength": 8520,
      "byteOffset": 329272,
      "target": 34962
    },
    {
      "buffer": 0,
      "byteLength": 15576,
      "byteOffset": 337792,
      "target": 34963
    },
    {
      "buffer": 0,
      "byteLength": 13092,
      "byteOffset": 353368,
      "target": 34962
    },
    {
      "buffer": 0,
      "byteLength": 13092,
      "byteOffset": 366460,
      "target": 34962
    },
    {
      "buffer": 0,
      "byteLength": 8728,
      "byteOffset": 379552,
      "target": 34962
    },
    {
      "buffer": 0,
      "byteLength": 15576,
      "byteOffset": 388280,
      "target": 34963
    },
    {
      "buffer": 0,
      "byteLength": 13092,
      "byteOffset": 403856,
      "target": 34962
    },
    {
      "buffer": 0,
      "byteLength": 13092,
      "byteOffset": 416948,
      "target": 34962
    },
    {
      "buffer": 0,
      "byteLength": 8728,
      "byteOffset": 430040,
      "target": 34962
    },
    {
      "buffer": 0,
      "byteLength": 88536,
      "byteOffset": 438768,
      "target": 34963
    },
    {
      "buffer": 0,
      "byteLength": 76980,
      "byteOffset": 527304,
      "target": 34962
    },
    {
      "buffer": 0,
      "byteLength": 76980,
      "byteOffset": 604284,
      "target": 34962
    },
    {
      "buffer": 0,
      "byteLength": 51320,
      "byteOffset": 681264,
      "target": 34962
    }
  ],
  "buffers": [
    {
      "byteLength": 732584,
      "uri": "data:application/octet-stream;base64,"
    }
  ],
  "materials": [
    {
      "doubleSided": true,
      "pbrMetallicRoughness": {
        "baseColorFactor": [
          0.13671875,
          0.1210937574505806,
          0.125,
          1.0
        ],
        "metallicFactor": 0.0,
        "roughnessFactor": 0.4000000059604645
      }
    },
    {
      "doubleSided": true,
      "pbrMetallicRoughness": {
        "baseColorFactor": [
          0.13671875,
          0.1210937574505806,
          0.125,
          1.0
        ],
        "metallicFactor": 0.0,
        "roughnessFactor": 0.4000000059604645
      }
    },
    {
      "doubleSided": true,
      "pbrMetallicRoughness": {
        "baseColorFactor": [
          0.13671875,
          0.1210937574505806,
          0.125,
          1.0
        ],
        "metallicFactor": 0.0,
        "roughnessFactor": 0.4000000059604645
      }
    },
    {
      "doubleSided": true,
      "pbrMetallicRoughness": {
        "baseColorFactor": [
          0.13671875,
          0.1210937574505806,
          0.125,
          1.0
        ],
        "metallicFactor": 0.0,
        "roughnessFactor": 0.4000000059604645
      }
    },
    {
      "doubleSided": true,
      "pbrMetallicRoughness": {
        "baseColorFactor": [
          0.13671875,
          0.1210937574505806,
          0.125,
          1.0
        ],
        "metallicFactor": 0.0,
        "roughnessFactor": 0.4000000059604645
      }
    },
    {
      "doubleSided": true,
      "pbrMetallicRoughness": {
        "baseColorFactor": [
          0.13671875,
          0.1210937574505806,
          0.125,
          1.0
        ],
        "metallicFactor": 0.0,
        "roughnessFactor": 0.4000000059604645
      }
    },
    {
      "doubleSided": true,
      "pbrMetallicRoughness": {
        "baseColorFactor": [
          0.13671875,
          0.1210937574505806,
          0.125,
          1.0
        ],
        "metallicFactor": 0.0,
        "roughnessFactor": 0.4000000059604645
      }
    },
    {
      "doubleSided": true,
      "pbrMetallicRoughness": {
        "baseColorFactor": [
          0.13671875,
          0.1210937574505806,
          0.125,
          1.0
        ],
        "metallicFactor": 0.0,
        "roughnessFactor": 0.4000000059604645
      }
    },
    {
      "doubleSided": true,
      "pbrMetallicRoughness": {
        "baseColorFactor": [
          0.13671875,
          0.1210937574505806,
          0.125,
          1.0
        ],
        "metallicFactor": 0.0,
        "roughnessFactor": 0.4000000059604645
      }
    },
    {
      "doubleSided": true,
      "pbrMetallicRoughness": {
        "baseColorFactor": [
          0.13671875,
          0.1210937574505806,
          0.125,
          1.0
        ],
        "metallicFactor": 0.0,
        "roughnessFactor": 0.4000000059604645
      }
    }
  ],
  "meshes": [
    {
      "primitives": [
        {
          "attributes": {
            "NORMAL": 2,
            "POSITION": 1,
            "TEXCOORD_0": 3
          },
          "indices": 0,
          "material": 0,
          "mode": 4
        }
      ]
    },
    {
      "primitives": [
        {
          "attributes": {
            "NORMAL": 6,
            "POSITION": 5,
            "TEXCOORD_0": 7
          },
          "indices": 4,
          "material": 1,
          "mode": 4
        }
      ]
    },
    {
      "primitives": [
        {
          "attributes": {
            "NORMAL": 10,
            "POSITION": 9,
            "TEXCOORD_0": 11
          },
          "indices": 8,
          "material": 2,
          "mode": 4
        }
      ]
    },
    {
      "primitives": [
        {
          "attributes": {
            "NORMAL": 14,
            "POSITION": 13,
            "TEXCOORD_0": 15
          },
          "indices": 12,
          "material": 3,
          "mode": 4
        }
      ]
    },
    {
      "primitives": [
        {
          "attributes": {
            "NORMAL": 18,
            "POSITION": 17,
            "TEXCOORD_0": 19
          },
          "indices": 16,
          "material": 4,
          "mode": 4
        }
      ]
    },
    {
      "primitives": [
        {
          "attributes": {
            "NORMAL": 22,
            "POSITION": 21,
            "TEXCOORD_0": 23
          },
          "indices": 20,
          "material": 5,
          "mode": 4
        }
      ]
    },
    {
      "primitives": [
        {
          "attributes": {
            "NORMAL": 26,
            "POSITION": 25,
            "TEXCOORD_0": 27
          },
          "indices": 24,
          "material": 6,
          "mode": 4
        }
      ]
    },
    {
      "primitives": [
        {
          "attributes": {
            "NORMAL": 30,
            "POSITION": 29,
            "TEXCOORD_0": 31
          },
          "indices": 28,
          "material": 7,
          "mode": 4
        }
      ]
    },
    {
      "primitives": [
        {
          "attributes": {
            "NORMAL": 34,
            "POSITION": 33,
            "TEXCOORD_0": 35
          },
          "indices": 32,
          "material": 8,
          "mode": 4
        }
      ]
    },
    {
      "primitives": [
        {
          "attributes": {
            "NORMAL": 38,
            "POSITION": 37,
            "TEXCOORD_0": 39
          },
          "indices": 36,
          "material": 9,
          "mode": 4
        }
      ]
    }
  ],
  "nodes": [
    {
      "mesh": 0
    },
    {
      "mesh": 1
    },
    {
      "mesh": 2
    },
    {
      "mesh": 3
    },
    {
      "mesh": 4
    },
    {
      "mesh": 5
    },
    {
      "mesh": 6
    },
    {
      "mesh": 7
    },
    {
      "mesh": 8
    },
    {
      "mesh": 9
    }
  ],
  "scenes": [
    {
      "nodes": [
        0,
        1,
        2,
        3,
        4,
        5,
        6,
        7,
        8,
        9
      ]
    }
  ]
}
