{
  "accessors": [
    {
      "bufferView": 0,
      "componentType": 5125,
      "count": 2328,
      "type": "SCALAR"
    },
    {
      "bufferView": 1,
      "componentType": 5126,
      "count": 658,
      "max": [
        0.0582910919160112,
        -0.08064473301932248,
        0.00199999994947575
      ],
      "min": [
        0.049894920613275884,
        -0.08556725858161052,
        -0.0019999999494757508
      ],
      "type": "VEC3"
    },
    {
      "bufferView": 2,
      "componentType": 5126,
      "count": 658,
      "max": [
        0.8063095846887619,
        0.9345289735986041,
        1.0
      ],
      "min": [
        -0.8318055633314567,
        -0.9148015056421114,
        -1.0
      ],
      "type": "VEC3"
    },
    {
      "bufferView": 3,
      "componentType": 5126,
      "count": 658,
      "max": [
        0.7976449480327893,
        1.0
      ],
      "min": [
        0.0,
        0.0
      ],
      "type": "VEC2"
    },
    {
      "bufferView": 4,
      "componentType": 5125,
      "count": 2328,
      "type": "SCALAR"
    },
    {
      "bufferView": 5,
      "componentType": 5126,
      "count": 658,
      "max": [
        0.06889624842899852,
        -0.08027440580845574,
        0.0019999999494757508
      ],
      "min": [
        0.0605065414414985,
        -0.08556725858161049,
        -0.0019999999494757508
      ],
      "type": "VEC3"
    },
    {
      "bufferView": 6,
      "componentType": 5126,
      "count": 658,
      "max": [
        0.8072400086686614,
        0.9098038519094256,
        1.0
      ],
      "min": [
        -0.8419849916007373,
        -0.8820557883576813,
        -1.0
      ],
      "type": "VEC3"
    },
    {
      "bufferView": 7,
      "componentType": 5126,
      "count": 658,
      "max": [
        0.781628781929736,
        1.0
      ],
      "min": [
        0.0,
        0.0
      ],
      "type": "VEC2"
    },
    {
      "bufferView": 8,
      "componentType": 5125,
      "count": 4596,
      "type": "SCALAR"
    },
    {
      "bufferView": 9,
      "componentType": 5126,
      "count": 1286,
      "max": [
        0.032355103578165456,
        -0.0816324352207542,
        0.00199999994947575
      ],
      "min": [
        0.0231218500009807,
        -0.09052360611346327,
        -0.0019999999494757508
      ],
      "type": "VEC3"
    },
    {
      "bufferView": 10,
      "componentType": 5126,
      "count": 1286,
      "max": [
        0.8065097399009713,
        0.9816351814956792,
        1.0
      ],
      "min": [
        -0.8095191591110573,
        -0.9819099433506427,
        -1.0
      ],
      "type": "VEC3"
    },
    {
      "bufferView": 11,
      "componentType": 5126,
      "count": 1286,
      "max": [
        0.8716193208972313,
        1.0
      ],
      "min": [
        0.0,
        0.0
      ],
      "type": "VEC2"
    },
    {
      "bufferView": 12,
      "componentType": 5125,
      "count": 4596,
      "type": "SCALAR"
    },
    {
      "bufferView": 13,
      "componentType": 5126,
      "count": 1286,
      "max": [
        0.04268224990363209,
        0.015157927684929046,
        0.00199999994947575
      ],
      "min": [
        0.019669710490636524,
        -0.004167431539063293,
        -0.0019999999494757508
      ],
      "type": "VEC3"
    },
    {
      "bufferView": 14,
      "componentType": 5126,
      "count": 1286,
      "max": [
        0.9989450294589349,
        0.9652373201238533,
        1.0
      ],
      "min": [
        -0.9989550308140251,
        -0.9659222817369686,
        -1.0
      ],
      "type": "VEC3"
    },
    {
      "bufferView": 15,
      "componentType": 5126,
      "count": 1286,
      "max": [
        1.0,
        0.9190743042422399
      ],
      "min": [
        0.0,
        0.0
      ],
      "type": "VEC2"
    },
    {
      "bufferView": 16,
      "componentType": 5125,
      "count": 4596,
      "type": "SCALAR"
    },
    {
      "bufferView": 17,
      "componentType": 5126,
      "count": 1286,
      "max": [
        -0.018682372569604616,
        0.014473852177138688,
        0.00199999994947575
      ],
      "min": [
        -0.0416717457224761,
        -0.004816719818803827,
        -0.0019999999494757508
      ],
      "type": "VEC3"
    },
    {
      "bufferView": 18,
      "componentType": 5126,
      "count": 1286,
      "max": [
        0.9991231873118671,
        0.9677089595902796,
        1.0
      ],
      "min": [
        -0.9992133557773898,
        -0.9675720369270294,
        -1.0
      ],
      "type": "VEC3"
    },
    {
      "bufferView": 19,
      "componentType": 5126,
      "count": 1286,
      "max": [
        1.0,
        0.9188333691102386
      ],
      "min": [
        0.0,
        0.0
      ],
      "type": "VEC2"
    },
    {
      "bufferView": 20,
      "componentType": 5125,
      "count": 3786,
      "type": "SCALAR"
    },
    {
      "bufferView": 21,
      "componentType": 5126,
      "count": 1065,
      "max": [
        0.010248977025395359,
        -0.08615367935998067,
        0.0019999999494757508
      ],
      "min": [
        0.0028310057868467797,
        -0.09054509048665219,
        -0.0019999999494757508
      ],
      "type": "VEC3"
    },
    {
      "bufferView": 22,
      "componentType": 5126,
      "count": 1065,
      "max": [
        0.7963029028013944,
        0.9984642646123046,
        1.0
      ],
      "min": [
        -0.7915678953295576,
        -0.9990986796924947,
        -1.0
      ],
      "type": "VEC3"
    },
    {
      "bufferView": 23,
      "componentType": 5126,
      "count": 1065,
      "max": [
        1.0,
        0.6488615329090952
      ],
      "min": [
        0.0,
        0.0
      ],
      "type": "VEC2"
    },
    {
      "bufferView": 24,
      "componentType": 5125,
      "count": 3786,
      "type": "SCALAR"
    },
    {
      "bufferView": 25,
      "componentType": 5126,
      "count": 1065,
      "max": [
        -0.052154119810561034,
        -0.086453530638949,
        0.00199999994947575
      ],
      "min": [
        -0.05961032564356501,
        -0.09251036945343513,
        -0.0019999999494757508
      ],
      "type": "VEC3"
    },
    {
      "bufferView": 26,
      "componentType": 5126,
      "count": 1065,
      "max": [
        0.7981280951532679,
        0.909151538328908,
        1.0
      ],
      "min": [
        -0.8177482096183684,
        -0.9325160443295607,
        -1.0
      ],
      "type": "VEC3"
    },
    {
      "bufferView": 27,
      "componentType": 5126,
      "count": 1065,
      "max": [
        1.0,
        0.6751166777845341
      ],
      "min": [
        0.0,
        0.0
      ],
      "type": "VEC2"
    },
    {
      "bufferView": 28,
      "componentType": 5125,
      "count": 3894,
      "type": "SCALAR"
    },
    {
      "bufferView": 29,
      "componentType": 5126,
      "count": 1091,
      "max": [
        -0.02752941164668457,
        -0.08268652135047261,
        0.0019999999494757508
      ],
      "min": [
        -0.036565453177480695,
        -0.09158218758068862,
        -0.0019999999494757508
      ],
      "type": "VEC3"
    },
    {
      "bufferView": 30,
      "componentType": 5126,
      "count": 1091,
      "max": [
        0.8087683730981156,
        0.975814247321277,
        1.0
      ],
      "min": [
        -0.8036140557932323,
        -0.9762138336245538,
        -1.0
      ],
      "type": "VEC3"
    },
    {
      "bufferView": 31,
      "componentType": 5126,
      "count": 1091,
      "max": [
        0.867946017180283,
        1.0
      ],
      "min": [
        0.0,
        0.0
      ],
      "type": "VEC2"
    },
    {
      "bufferView": 32,
      "componentType": 5125,
      "count": 3894,
      "type": "SCALAR"
    },
    {
      "bufferView": 33,
      "componentType": 5126,
      "count": 1091,
      "max": [
        -0.039573657867540704,
        -0.08268652134685281,
        0.001999999949475749
      ],
      "min": [
        -0.048617235101624696,
        -0.09200278930763628,
        -0.0019999999494757508
      ],
      "type": "VEC3"
    },
    {
      "bufferView": 34,
      "componentType": 5126,
      "count": 1091,
      "max": [
        0.8170705288717071,
        0.9558501793320714,
        1.0
      ],
      "min": [
        -0.8116150660170306,
        -0.9564066428813844,
        -1.0
      ],
      "type": "VEC3"
    },
    {
      "bufferView": 35,
      "componentType": 5126,
      "count": 1091,
      "max": [
        0.8506386313173246,
        1.0
      ],
      "min": [
        0.0,
        0.0
      ],
      "type": "VEC2"
    },
    {
      "bufferView": 36,
      "componentType": 5125,
      "count": 22134,
      "type": "SCALAR"
    },
    {
      "bufferView": 37,
      "componentType": 5126,
      "count": 6415,
      "max": [
        0.10342807363032247,
        0.10342816785623037,
        0.00199999994947575
      ],
      "min": [
        -0.10342807363032248,
        -0.10342816785623038,
        -0.0019999999494757508
      ],
      "type": "VEC3"
    },
    {
      "bufferView": 38,
      "componentType": 5126,
      "count": 6415,
      "max": [
        0.9998476951563912,
        0.9999719622175585,
        1.0
      ],
      "min": [
        -0.9998476951563912,
        -0.9999556591663046,
        -1.0
      ],
      "type": "VEC3"
    },
    {
      "bufferView": 39,
      "componentType": 5126,
      "count": 6415,
      "max": [
        1.0,
        0.9897924799309981
      ],
      "min": [
        0.0,
        0.0
      ],
      "type": "VEC2"
    }
  ],
  "asset": {
    "generator": "Adobe Illustrator",
    "version": "2.0"
  },
  "bufferViews": [
    {
      "buffer": 0,
      "byteLength": 9312,
      "target": 34963
    },
    {
      "buffer": 0,
      "byteLength": 7896,
      "byteOffset": 9312,
      "target": 34962
    },
    {
      "buffer": 0,
      "byteLength": 7896,
      "byteOffset": 17208,
      "target": 34962
    },
    {
      "buffer": 0,
      "byteLength": 5264,
      "byteOffset": 25104,
      "target": 34962
    },
    {
      "buffer": 0,
      "byteLength": 9312,
      "byteOffset": 30368,
      "target": 34963
    },
    {
      "buffer": 0,
      "byteLength": 7896,
      "byteOffset": 39680,
      "target": 34962
    },
    {
      "buffer": 0,
      "byteLength": 7896,
      "byteOffset": 47576,
      "target": 34962
    },
    {
      "buffer": 0,
      "byteLength": 5264,
      "byteOffset": 55472,
      "target": 34962
    },
    {
      "buffer": 0,
      "byteLength": 18384,
      "byteOffset": 60736,
      "target": 34963
    },
    {
      "buffer": 0,
      "byteLength": 15432,
      "byteOffset": 79120,
      "target": 34962
    },
    {
      "buffer": 0,
      "byteLength": 15432,
      "byteOffset": 94552,
      "target": 34962
    },
    {
      "buffer": 0,
      "byteLength": 10288,
      "byteOffset": 109984,
      "target": 34962
    },
    {
      "buffer": 0,
      "byteLength": 18384,
      "byteOffset": 120272,
      "target": 34963
    },
    {
      "buffer": 0,
      "byteLength": 15432,
      "byteOffset": 138656,
      "target": 34962
    },
    {
      "buffer": 0,
      "byteLength": 15432,
      "byteOffset": 154088,
      "target": 34962
    },
    {
      "buffer": 0,
      "byteLength": 10288,
      "byteOffset": 169520,
      "target": 34962
    },
    {
      "buffer": 0,
      "byteLength": 18384,
      "byteOffset": 179808,
      "target": 34963
    },
    {
      "buffer": 0,
      "byteLength": 15432,
      "byteOffset": 198192,
      "target": 34962
    },
    {
      "buffer": 0,
      "byteLength": 15432,
      "byteOffset": 213624,
      "target": 34962
    },
    {
      "buffer": 0,
      "byteLength": 10288,
      "byteOffset": 229056,
      "target": 34962
    },
    {
      "buffer": 0,
      "byteLength": 15144,
      "byteOffset": 239344,
      "target": 34963
    },
    {
      "buffer": 0,
      "byteLength": 12780,
      "byteOffset": 254488,
      "target": 34962
    },
    {
      "buffer": 0,
      "byteLength": 12780,
      "byteOffset": 267268,
      "target": 34962
    },
    {
      "buffer": 0,
      "byteLength": 8520,
      "byteOffset": 280048,
      "target": 34962
    },
    {
      "buffer": 0,
      "byteLength": 15144,
      "byteOffset": 288568,
      "target": 34963
    },
    {
      "buffer": 0,
      "byteLength": 12780,
      "byteOffset": 303712,
      "target": 34962
    },
    {
      "buffer": 0,
      "byteLength": 12780,
      "byteOffset": 316492,
      "target": 34962
    },
    {
      "buffer": 0,
      "byteLength": 8520,
      "byteOffset": 329272,
      "target": 34962
    },
    {
      "buffer": 0,
      "byteLength": 15576,
      "byteOffset": 337792,
      "target": 34963
    },
    {
      "buffer": 0,
      "byteLength": 13092,
      "byteOffset": 353368,
      "target": 34962
    },
    {
      "buffer": 0,
      "byteLength": 13092,
      "byteOffset": 366460,
      "target": 34962
    },
    {
      "buffer": 0,
      "byteLength": 8728,
      "byteOffset": 379552,
      "target": 34962
    },
    {
      "buffer": 0,
      "byteLength": 15576,
      "byteOffset": 388280,
      "target": 34963
    },
    {
      "buffer": 0,
      "byteLength": 13092,
      "byteOffset": 403856,
      "target": 34962
    },
    {
      "buffer": 0,
      "byteLength": 13092,
      "byteOffset": 416948,
      "target": 34962
    },
    {
      "buffer": 0,
      "byteLength": 8728,
      "byteOffset": 430040,
      "target": 34962
    },
    {
      "buffer": 0,
      "byteLength": 88536,
      "byteOffset": 438768,
      "target": 34963
    },
    {
      "buffer": 0,
      "byteLength": 76980,
      "byteOffset": 527304,
      "target": 34962
    },
    {
      "buffer": 0,
      "byteLength": 76980,
      "byteOffset": 604284,
      "target": 34962
    },
    {
      "buffer": 0,
      "byteLength": 51320,
      "byteOffset": 681264,
      "target": 34962
    }
  ],
  "buffers": [
    {
      "byteLength": 732584,
      "uri": "data:application/octet-stream;base64,"
    }
  ],
  "materials": [
    {
      "doubleSided": true,
      "pbrMetallicRoughness": {
        "baseColorFactor": [
          0.13671875,
          0.1210937574505806,
          0.125,
          1.0
        ],
        "metallicFactor": 0.0,
        "roughnessFactor": 0.4000000059604645
      }
    },
    {
      "doubleSided": true,
      "pbrMetallicRoughness": {
        "baseColorFactor": [
          0.13671875,
          0.1210937574505806,
          0.125,
          1.0
        ],
        "metallicFactor": 0.0,
        "roughnessFactor": 0.4000000059604645
      }
    },
    {
      "doubleSided": true,
      "pbrMetallicRoughness": {
        "baseColorFactor": [
          0.13671875,
          0.1210937574505806,
          0.125,
          1.0
        ],
        "metallicFactor": 0.0,
        "roughnessFactor": 0.4000000059604645
      }
    },
    {
      "doubleSided": true,
      "pbrMetallicRoughness": {
        "baseColorFactor": [
          0.13671875,
          0.1210937574505806,
          0.125,
          1.0
        ],
        "metallicFactor": 0.0,
        "roughnessFactor": 0.4000000059604645
      }
    },
    {
      "doubleSided": true,
      "pbrMetallicRoughness": {
        "baseColorFactor": [
          0.13671875,
          0.1210937574505806,
          0.125,
          1.0
        ],
        "metallicFactor": 0.0,
        "roughnessFactor": 0.4000000059604645
      }
    },
    {
      "doubleSided": true,
      "pbrMetallicRoughness": {
        "baseColorFactor": [
          0.13671875,
          0.1210937574505806,
          0.125,
          1.0
        ],
        "metallicFactor": 0.0,
        "roughnessFactor": 0.4000000059604645
      }
    },
    {
      "doubleSided": true,
      "pbrMetallicRoughness": {
        "baseColorFactor": [
          0.13671875,
          0.1210937574505806,
          0.125,
          1.0
        ],
        "metallicFactor": 0.0,
        "roughnessFactor": 0.4000000059604645
      }
    },
    {
      "doubleSided": true,
      "pbrMetallicRoughness": {
        "baseColorFactor": [
          0.13671875,
          0.1210937574505806,
          0.125,
          1.0
        ],
        "metallicFactor": 0.0,
        "roughnessFactor": 0.4000000059604645
      }
    },
    {
      "doubleSided": true,
      "pbrMetallicRoughness": {
        "baseColorFactor": [
          0.13671875,
          0.1210937574505806,
          0.125,
          1.0
        ],
        "metallicFactor": 0.0,
        "roughnessFactor": 0.4000000059604645
      }
    },
    {
      "doubleSided": true,
      "pbrMetallicRoughness": {
        "baseColorFactor": [
          0.13671875,
          0.1210937574505806,
          0.125,
          1.0
        ],
        "metallicFactor": 0.0,
        "roughnessFactor": 0.4000000059604645
      }
    }
  ],
  "meshes": [
    {
      "primitives": [
        {
          "attributes": {
            "NORMAL": 2,
            "POSITION": 1,
            "TEXCOORD_0": 3
          },
          "indices": 0,
          "material": 0,
          "mode": 4
        }
      ]
    },
    {
      "primitives": [
        {
          "attributes": {
            "NORMAL": 6,
            "POSITION": 5,
            "TEXCOORD_0": 7
          },
          "indices": 4,
          "material": 1,
          "mode": 4
        }
      ]
    },
    {
      "primitives": [
        {
          "attributes": {
            "NORMAL": 10,
            "POSITION": 9,
            "TEXCOORD_0": 11
          },
          "indices": 8,
          "material": 2,
          "mode": 4
        }
      ]
    },
    {
      "primitives": [
        {
          "attributes": {
            "NORMAL": 14,
            "POSITION": 13,
            "TEXCOORD_0": 15
          },
          "indices": 12,
          "material": 3,
          "mode": 4
        }
      ]
    },
    {
      "primitives": [
        {
          "attributes": {
            "NORMAL": 18,
            "POSITION": 17,
            "TEXCOORD_0": 19
          },
          "indices": 16,
          "material": 4,
          "mode": 4
        }
      ]
    },
    {
      "primitives": [
        {
          "attributes": {
            "NORMAL": 22,
            "POSITION": 21,
            "TEXCOORD_0": 23
          },
          "indices": 20,
          "material": 5,
          "mode": 4
        }
      ]
    },
    {
      "primitives": [
        {
          "attributes": {
            "NORMAL": 26,
            "POSITION": 25,
            "TEXCOORD_0": 27
          },
          "indices": 24,
          "material": 6,
          "mode": 4
        }
      ]
    },
    {
      "primitives": [
        {
          "attributes": {
            "NORMAL": 30,
            "POSITION": 29,
            "TEXCOORD_0": 31
          },
          "indices": 28,
          "material": 7,
          "mode": 4
        }
      ]
    },
    {
      "primitives": [
        {
          "attributes": {
            "NORMAL": 34,
            "POSITION": 33,
            "TEXCOORD_0": 35
          },
          "indices": 32,
          "material": 8,
          "mode": 4
        }
      ]
    },
    {
      "primitives": [
        {
          "attributes": {
            "NORMAL": 38,
            "POSITION": 37,
            "TEXCOORD_0": 39
          },
          "indices": 36,
          "material": 9,
          "mode": 4
        }
      ]
    }
  ],
  "nodes": [
    {
      "mesh": 0
    },
    {
      "mesh": 1
    },
    {
      "mesh": 2
    },
    {
      "mesh": 3
    },
    {
      "mesh": 4
    },
    {
      "mesh": 5
    },
    {
      "mesh": 6
    },
    {
      "mesh": 7
    },
    {
      "mesh": 8
    },
    {
      "mesh": 9
    }
  ],
  "scenes": [
    {
      "nodes": [
        0,
        1,
        2,
        3,
        4,
        5,
        6,
        7,
        8,
        9
      ]
    }
  ]
}
