<?xml version="1.0" encoding="UTF-8"?>
<svg id="Layer_1" data-name="Layer 1" xmlns="http://www.w3.org/2000/svg" viewBox="0 0 399.63 391.67">
  <defs>
    <style>
      .cls-1 {
        fill: #ed1c24;
      }
    </style>
  </defs>
  <path class="cls-1" d="M142.7,6.85c-.53.26-1.62-1.12-2.43-.61-10.63,6.68-2.9,9.7,1.52,3.35.05-.07-1.26-1.14-1.22-1.22.81-1.34,5.8-2.12,4.26,1.83-1.05,2.69-6.49,2.58-7.91,5.48,2.22,2.45,6.2-.21,7-.3,1.83-.2,2.05,1.71,4.26,1.22.42-.09,6.56-5.19,5-5.98,9.19.98,31.11-12.19,9-10.46-.64.05-1,1.81-1.22,1.83-3.01.27-7.48.96-9.74,0v5.48l-1.22-3.04-3.65,3.04c3.08-4.99-.58-3.65-3.96-2.13-.57.26.98,1.19.3,1.52ZM137.84,11.11c-.8-.42-.16-2.17.61-2.43,3.17-1.11.23,2.88-.61,2.43ZM108.02,307.47c.93-.32,9.76-15.56,10.04-16.74.66-2.74-.43-6.34,0-7.91.93-3.37,10.27-3.55,13.39-7.91.28-.39,2.98-8.53,3.04-9.13.29-2.98-1.8-6.65-.61-9.74,1.28-3.31,10.03-6.84,7.91-14.6-.3-1.12-10.37-8.87-11.87-9.43-1.56-.59-7.53-.48-7.91-.61-.99-.32-.15-2.38-1.83-3.04-1.21-.48-8.56-1.51-9.13-1.83-.68-.38.86-1.15.3-1.52-.95-.63-2.64-.81-2.74-.91-.66-.69-.09-1.8-.3-2.13-.33-.5-1.18.87-1.83-.61-.09-.2.88-2.41,0-4.26-3.28-6.9-8.2-6.42-14.91-6.39,1.32-5.96-.8-2.19-1.83-3.04-2.84-2.34-6.64-6.41-5.17-10.04-2.77,3.12-1.45,1.39-3.65,1.52-4.86.29-2.22-1.31-3.96-1.83-1.07-.32-4.93,1.7-7.3,1.22-1.85-.38-2.84-3.12-4.26-3.04-.18,0-1.56,1.68-3.04,1.83-.53.05-.06-1.78-.61-1.83-1.94-.17-11.41,7.74-11.56,10.95-1.62-6.59-11.27,1.49-11.87-8.82-.45-7.81,6.93-9.7-8.52-10.95,2.85-1.75,8.92-16.37,1.52-12.48-2.46,1.29-1.96,5.16-4.26,6.09-2.54,1.02-8.64-1.34-9.43-4.56,1.3-5.07,1.79-15.98,5.78-19.78,3.87-3.69,8.76.34,11.56-.61,1.61-.54-.19-2.89,1.22-3.04,1.6-.18,9.38,1.71,10.04,3.35.34.85-1.16,9.19,1.52,10.04,2.89.92,1.99-6.92,2.13-8.52.18-2-.32-6.09,0-7,.9-2.53,13.84-7.46,16.43-10.35.19-.21,2.75-4.35,3.04-4.87.81-1.46-3.51.37,1.83-4.26.23-.2-.37-1.67.3-2.13.46-.31,1.57,1.12,2.43.61,5.01-2.93,6.4-3.84,12.78-4.26-1.87-2.22-5.26.73-2.13-4.56,1.72-2.91,17.18-10.65,10.35-4.26,1.69.4,14.98-3.29,15.21-4.26.15-.62-1.42-1.96-2.74-1.52-1.16.38.87,4.07-3.65-1.83l-2.13,2.13c.97-.89.45-4.11.61-4.26.73-.68,3.31.2,3.65-1.22.98-4.03-11.77.6-13.08,2.74-1.86-.04,1.1-2.36,1.22-2.43,8.19-5.43,14.92-2.89,23.73-4.87l-6.39,6.39c1.83,2.52,7.48.08,5.17,3.35,3.06-3.47,3.95,1.01,5.48,1.22,5.14.71,1.04-5.88,2.13-8.22h-3.65l.91-2.74-2.74,1.52c-.05-2.27,5.25-3.55,5.48-4.26.45-1.44-1.25-2.28-1.22-2.43.15-.69,1.82-2.28,1.83-2.43.13-2.28-6.23-5.27-6.69-8.52-.35-2.44,2.19-6.72,1.22-9.74-.91-2.32-8.25,4.01-10.35,1.22,1.11-4.2,4.51-5.05,3.04-9.43,0,0,0,0,0,0,0,0,0,0,0,0-7.3-3.67-8.76-2.1-10.57,1.29-.09.16-.17.33-.26.5-.15.28-.3.57-.46.87-.13.24-.26.49-.4.74-.31.56-.65,1.15-1.04,1.76-.13.2-.27.4-.41.61-.43.61-.91,1.23-1.46,1.85.1.03.17.09.23.17.9,1.2-1.94,7.31-2.67,8.35-2.35,3.34-5.08,1.08-6.69,3.65-.55.87-1.35,7.84-3.96,8.22-.45.06-.84.09-1.17.07-.04,0-.07,0-.1-.01-.23-.02-.44-.05-.62-.11-2.45-.71-.51-4.53.95-7.08.12-.21.23-.4.34-.59.17-.29.33-.56.46-.79.02-.03.03-.06.05-.08.09-.17.18-.31.24-.44,0,0,0-.01,0-.02.1-.2.16-.34.14-.39-.19-.7-4.25-1.83-5.17-2.74-1.15-1.14-3.09-4.33-4.87-6.09,0,0-.03,0-.06.04-.05.05-.12.12-.2.21-.32.32-.87.75-1.26.05-.08-.14.2-1.4.57-2.84.02-.1.05-.19.07-.29.42-1.63.91-3.39,1.11-3.97.03-.1.06-.17.07-.2.29-.5.66-1,1.09-1.49,1.08-1.24,2.56-2.42,4.2-3.52.52-.35,1.06-.69,1.6-1.02.15-.09.31-.19.46-.28,1.05-.62,2.12-1.22,3.15-1.76.41-.22.82-.43,1.21-.63,1.44-.75,2.77-1.4,3.8-1.94.19-.1.39-.28.6-.5.01-.01.02-.03.04-.04.46-.49.93-1.15,1.37-1.57.15-.14.29-.26.43-.33h0c.15-.08.61,1.41,2.62.77.13-.04.28-.1.42-.16.95-.4,1.52-1,1.96-1.66.1-.14.19-.29.28-.44.07-.13.15-.25.22-.38.09-.16.18-.32.27-.49.15-.28.31-.55.49-.81.13-.19.26-.36.41-.53.02-.02.04-.04.06-.07.18-.18.39-.34.62-.49.07-.04.13-.09.2-.13.48-.26,1.09-.43,1.89-.48l.91-8.52c-2.85,1.25-4.74,4.17-8.22,3.35-.21-.66,12.62-6.53,8.82-9.43-2.46-1.87-7.73,8.05-10.35,8.52-.74.13-6.29-4.79-6.69-4.87-1.38-.27-2.98,2.12-5.78-.3,3.76-3.78,8.33.96,8.82.91.66-.07,1.08-2.25,1.83-2.43.67-.17,9,.19,7-3.35-.59-1.05-2.13,2.21-3.04,1.22,3.76-6.42,8.94-9.37,15.21-12.78-3.79-.77-8.18,1.48-11.56,3.35-.18.15-.38.53-.63.9-.03.05-.07.1-.1.15-.02.03-.05.07-.07.1-.41.54-.93.95-1.63.38h0c.14-.31.33-.53.54-.7.48-.4,1.07-.51,1.53-.67.06-.02.12-.04.18-.07.07-.03.13-.05.19-.08h0s0,0,0,0c.69-.58,3.15-2.76,3.35-3.65-4.2,1.22-7.11.38-11.26.91,2.17-1.62,4.54-1.88,7-3.35.7-.42-.09-2.02.61-2.43.21-.12,3.61.08,4.87-.61.94-.51.92-2,1.83-2.43,1.79-.86,5.75-.66,7.61-2.74-3.2-3.46-24.9,9.48-24.95,10.95-.02.67,1.85.62,1.83,1.83,0,.3-3.54,4.37-3.65,4.87-.2.9,2.75,3.85,1.52,4.56-2.8-1.49-5.07,2.12-8.22,1.52,8.58-4.23,1.24-3.06,3.65-7.91l-3.35-.3c-.62-.67,1.76-1.02,1.52-1.52-.67-1.39-14.41,10.34-16.13,11.87C32.58,67.78,8.74,106.83,0,150.16c1.1,4.68-.95,13.57,2.43,16.43.59-5.48-1.14-10.99-.61-16.43.04-.4.48-5.83,1.83-4.87-2,7.82,1.28,15.03,2.43,22.52.68,4.39-2.15,6.12.61,10.35,3.57,5.46,9.55,5.36,13.08,7,1.47.68,14.17,11.71,15.52,13.69.24.36-.24,1.97,0,2.43.98,1.88,2.4-.04,2.74.3,1.03,1.06,4.06,5.59,5.48,5.48.77-.06,2.41-4.52,5.17-.91,3.39,4.44-.03,12.65-1.83,16.43-.18.38-2.51.66-3.04,2.43-1.15,3.85,1.71,6.72,1.83,7.91.03.35-2.75,1.43-.61,6.09.45.97,10.27,17.43,10.95,18.26,3.7,4.48,11.08,3.69,14,9.13,4.77,8.89,6.95,40.88,11.56,54.16,1.56,4.51,8.93,19.43,12.27,24.63.29.19.49.43.51.76.24.34.45.61.61.79,2.34,2.46,5.92,3.48,8.82,5.17.63.37-.02,1.48.61,1.83.22.12.26-1.72,1.22-1.22,2.72,1.44,3.53,6.28,8.82-.3-1.16-1.06-2.3,1.52-2.74,1.52-1.52.01-9.7-4.55-10.04-5.78-.48-1.72,1.78-2.5,1.83-3.04.03-.42-3.77-5.06-4.26-7.3-.08-.38,3.55-4-1.83-6.09,5.13-3.95,1.49-2.45,1.22-4.26-.81-5.37.97-4.31,1.22-5.48.41-1.95-.09-5.22,0-5.48.26-.77,14.1-2.65,1.22-9.13.15-.5,5.69.76,7,.3ZM106.19,223.49c.37-.05.78-.08.91.3-1.11.95-2.05,2.91-3.65,1.83.56-.31,2.57-2.11,2.74-2.13ZM58.72,200.98c-.89-.88,1.65-3.03,1.83-3.04,1.78-.12.15,4.26-1.83,3.04ZM137.84,17.2c-.44,2.56,1.22,1.73,2.74,3.35l-5.17,2.74,2.43-6.09ZM212.38,89.31c-1.95,5.35-.73,7.44-7.61,8.22.31-2.73,1.44-8.15,4.26-9.13.16-.06,3.26.3,3.35.91ZM294.23,39.1c-7.35,1.82-9.36-11.35-7.61-15.52.25-.6,4.85-3.95,5.17-3.96.24,0,2.76,1.86,2.74,2.13-6.65,3.8-5.41,12.73-.3,17.34ZM211.16,82.61c1.34-.78,4.35-2.77,5.78-2.74.63.02,1.71-.24,2.13.3-4.23,4.88-.85,2.57-.61,4.26.02.11-1.26,1.72-1.22,1.83.66,1.78,7.62,8.25,7.3,10.35-.43,2.83-14.11,5.66-13.39,3.04.16-.57,3.13-1.81,3.04-2.43-.06-.45-5.05-1.71,3.35-2.74.78-.89-1.22-5.25-1.83-6.09-.28-.39-3.06,2.42-3.35-3.96-.05-1.14,3.07-.54-1.22-1.83ZM128.71,57.36c.29.06,5.1-2.35,5.17-2.74.11-.58-6.72-8.75-6.69-9.74,0-.37,3.98-4.55,4.26-6.09-7.31-1.71,2.68-7.53-5.48-6.39h0c-.54.25-1.19.82-1.88,1.49-.15.14-.29.28-.44.43-1.65,1.61-3.52,3.47-4.98,2.65h0s0,0,0,0c1.31-1.21,2.48-2.16,3.74-3.03.31-.22.63-.43.96-.63.8-.51,1.65-1,2.61-1.51,1.13-.6,3.05-.46,2.13-1.83-7.84-.92-9.47,2.72-14,7.91-.15.17-1.74-.53-2.74.91-1.7,2.47.31,5.63,3.04,6.39.46-.36.81-.66,1.07-.92.51-.52.66-.88.58-1.16-.04-.14-.13-.26-.26-.37-.51-.44-1.59-.74-2.03-1.59-.04-.07-.07-.15-.1-.23-.05-.16-.09-.33-.1-.53-.02-.49.13-1.11.52-1.9.83,1.73,2.68,1.56,3.87,2.16.09.05.18.1.26.15.08.06.16.12.23.19s.14.15.2.23c1.88,2.61-1.11,11.65-3.35,13.69-2.09,1.91-4.86.33-6.92,1.45-.08.04-.16.1-.23.16-.23.15-.45.33-.66.57-.14.16-.27.34-.4.55,1.97,1.78,4.09-.08,4.87,3.35,1.4.85,7.59,7.39,8.22,7.3,2.51-2.22-.65-4.51-.3-7l2.74,3.35c4.07-3.8,1.21-7.6,1.83-12.17,2.38-.28,3.3,4.67,4.26,4.87ZM116.54,57.36h-.61v-1.22l.61.61v.61ZM257.41,61.01c9.14-8.4,2,2.24,1.83,2.74-2.32,6.69-1.32,5.61,3.65,8.52.07.04-1.34,1.27-.3,1.52.53.13,6.63-5.45,10.04-1.52l-10.04,2.13,3.65,2.43c-.33,3.37-4.76-1.33-5.48-1.22-1.85,3.32.88,5.45.91,5.78.19,1.91-3.02-1.12-3.65.61-1.18,3.23,1.96,5.62-5.17,5.78-.17,0-.67-1.86-1.22-1.83-.2.01-3.15,1.83-3.65,1.83-14.11.01-3.67-.93-7.3-8.52-4.65,2.83-4.85,4.72-2.13,9.43-1.6,1.35-7.01,3.4-8.22,4.56-2.26,2.18-.9,3.54-2.43,4.87-.74.64-2.93.5-3.04.61-1.18,1.07-2.24,3.55-2.43,3.65-2.18,1.15-8.64-.59-11.26,2.13-.1.71,9.22,4.62,5.48,11.56-1.33,2.47-7.9,0-10.65.91-3,1-4.59,16.51-3.96,17.34.52.68,4.23-.31,5.17.3,1.48,6.46-7.02,9.39-10.04,13.69-.18.26-.84,4.64-1.83,6.09-2.09,3.06-8.83,8.07-10.95,12.17-3.61,6.97-2.55,16.4-4.26,24.34,4.49,4.55,12.03,17.63,18.56,18.56.69.1,12.89-.47,14-.61.34-.04,5.05-2.92,6.09-3.04,8.22-.98,6.58,4.17,9.13,5.48,2.84,1.46,7.34-2.29,8.82,1.52,1.81,4.64-3.65,8.03-3.65,8.52-.01,2.61,6.79,8.82,7.91,11.56,5.93,14.54-2.31,19.52-1.22,31.04.75,7.93,7.12,22.92,9.74,31.04.11.35-1.41,5.37,2.13,6.39.5.14,9.58-.46,10.35-.61,7.81-1.52,13.75-9.56,18.56-15.52,1.2-1.49-.08-2.34,0-2.43,1.37-1.75,6.34-3.45,7.3-5.48,1.27-2.66-.47-6.56,0-7.91.43-1.24,11.4-8.62,12.17-10.35,2.5-5.6-2.38-18.13-.61-24.95,2.52-9.69,27.18-23.21,25.56-37.73-.24-.77-.73.44-1.22.3h0c-3.23,2.77-10.36,4.21-14,.91-9.81-8.89-16.49-27.75-20.69-40.16l-3.65-5.48c13,12.01,17.12,29.67,25.25,44.12l13.69-5.48s0,0,0,0c.6-.39,1.81-2.79,2.13-3.04,1.52-1.19,7.65-3.35,8.82-5.78.16-.32-.66-4.2,1.22-6.69,1.32-1.75,3.75.13,3.65-3.04-.13-4.36-3.99-3.79-5.17-4.56-.73-.48-2.69-3-3.04-3.04-.83-.1-3.39,3.08-6.09,2.43-1-.24-10.15-11.8-8.52-12.78,3.13-1.89,5.96,3.88,7.91,4.87,1.31.66,15.52,5.99,16.43,6.09,5.68.58,8.4-3.22,14.91,2.13.32.27-.94.62.3,2.13.29.36,2.54.55,2.74.91.43.81-1.51,1.46-1.22,2.43,1.48,4.94,4.5,2.91,5.09-.78-.06-.87-.05-1.57.08-1.96.06.69.02,1.34-.08,1.96.47,7.19,6.55,28.69,7.99,29.08,1.17.1,1.22-.7,1.52-1.52,3.36-9.25,2.58-18.53,9.74-27.99,6.47-8.56,7.17,8.2,8.52,9.74.53.6,1.06-.62,1.52-.91,4.21,5.56-1.01,23.64,5.17,28.91-.5-1.95-.09-5.75-.61-7.61-1.61-5.72-.41-11.68,0-17.04.64-4.39-1.45-8.96,2.07-10.91-.04-.53-.09-1.06-.14-1.59-.46,1.43-1.26,2.13-2.53.03-.62-1.02-2.21-19.92-3.04-23.73-.83-3.78-7.43-23.08-7.3-24.34.08-.85,1.21-1.13,1.79-1.99-.3-.83-.6-1.66-.91-2.48-.2.33-.57.52-1.18.51-1.69-.03-12.56-26.01-14.91-30.12-13.05-22.86-37.62-50.89-60.85-63.59h0s0,0,0,0c-.05.98-4.19,2.55-3.04,5.78.79,2.23,8.3,1.45,9.13,4.87l-3.96-2.13c-1.93.64,1.37,2.26,0,2.43-.82.1-1.71-1.31-2.74-.3,1.85,5.27,7.11,6.34,11.56,8.52-5.78-1.78-4.2,4.12-3.35,7-3.93-6.11-8.15-9.29-15.21-11.56l-.61,1.22c.65,2.36,7.53,3.32,6.09,5.48-4.15,2.33-2.77-.71-5.48-.61-.27.01-3.6,2.12-4.87,2.43-.24.06-3.32-.92-4.87,0-.41.25-3.35,4.81-3.65,4.87-.6.12-7.81-10.6-2.74,1.52-8.23-2.3-1.27,6.07-8.22,3.35v2.43l-5.78-5.78c2.4-.49,12.92,1.63,8.22-2.74-3.71-3.44-10.37-3.97-14.6-5.48-.36-.13.05-1.76-1.83-2.43-6.18-2.22-8.19,3.59-12.17,1.83-5.85,9.51-11.57,16.95-20.39,24.04,1.75,2.79-.26,6.48,2.13,8.22,2.35.69,4.72-3.82,7.3-3.04.38.12,3.92,6.6,3.96,7,.02.3-4.22,3.77,1.52,2.13,5.44-1.55,3.25-5.82,3.96-7.61.07-.18,2.81-.43,3.04-2.43.31-2.69-3.2-2.44-2.43-5.17h0c.33-1.18,5.06-8.19,6.09-9.13M286.32,147.42c-4.53-1.41-8.86.92-13.39.61-2.68-.19-10.96-3.73-11.56-3.65-1.39.18-3,4.51-3.65,4.87-1.7.94-17.03-6.7-17.34-8.22-.31-1.52,1.53-2.75,1.22-4.26-.04-.21-2.54-3.26-2.74-3.35-1.72-.71-2.88,1.22-3.04,1.22-4.21-.15-8.51-1.14-12.78-.61-2.97.37-9.78,4.55-12.78,3.04-4.18-2.11,6.49-2.99,8.82-7,.87-1.49.36-3.82.61-4.26,1.78-3.14,4.97-2.8,6.09-4.26.3-.4-.45-2.7.3-3.35.32-.28,6.74.35,8.52,0,1.19-.24,1.74-3.96,5.48-1.83.77.44,2.24,4.11,2.43,4.26,4.57,3.39,10.47,2.42,8.52,10.95,2.09-2.25,3.02-2.76,3.04-6.09l3.04,3.04c1.08-.73.73-1.15.3-2.13-1.46-3.32-13.35-7.27-13.08-13.69,1.36,2.57,11.97,8.01,12.48,8.82.28.44-.28,2.6,0,3.04,2.34,3.75,7.6,13.89,12.78,10.35l-7.3-4.87c8.44-.45,3.11-3.5,3.65-4.26.63-.87,5.53-2.03,6.09.61.34,1.6-1.25,2.24-1.22,2.43.06.43,5.62,5.8,6.39,5.78.26,0,1.6-1.84,1.83-1.83.97.07,2.3,1.21,2.43,1.22.65.01,2.24-2.07,4.56.3l-1.83,2.43c5.1,2.11,4.3-4.19,7.61-3.96,1.81,1.45-3.31,13.18-5.48,14.61ZM297.27,123.08c-3.58,2.67-9.43-2.32-11.56-2.43-1.44-.08-9.63,4.68-11.26.91-.84-1.93,4.34-13.38,7.3-9.74l-2.43,1.22c3.39-1.1,2.63,2.03,4.56,2.13,1.52.08,5.01-2.18.61-3.65l6.09-2.43c2.42,1.61-1.55,4.28-1.52,4.56.09.91,12.82,6,8.22,9.43ZM390.69,134.34c-.48-1.13.28-1.61.81-2.42.18.6.36,1.21.54,1.81-.58.29-1.15,1.07-1.35.61ZM374.56,198.54c1.59.17,2.85,7.08,1.83,7.91-3.18.17-2.68-8-1.83-7.91ZM393.12,210.41c2.2,4.31,5.88,4.76,2.74,12.48l-7.91-20.08c2.95-1.75,4.87,7.01,5.17,7.61ZM196.26,4.42c.61.41,5.03.38,5.78,2.13l-3.35,3.35c3.3-3.15,3.98,1.16,4.26,1.22.28.05,2.72-2.75,5.17-.3-2.68,1.19-9.58,5.2-8.52,8.52.05.17,2.9-.95,1.83,1.22-.13.26-3.02,1.65-3.04,1.83-.19,1.28,1.27.79,1.22,1.22-.55,4.12-.89,8.27-3.96,11.26-.13.13-3.23-1.99-.3,1.52-.85,3.46-2.19-.68-3.65,1.22l3.04,6.69c-3.83,1.74-4.89-7.96-6.69-.61l4.56,2.74c-3.44,1.68-9.79,2.85-12.78,4.26-2.39,1.13-11.71,5.85-14,7.3-4.34,2.76-11.79,15.57-12.78,15.82-4.33,1.1-2.73-4.17-3.04-4.26-.24-.07-2.27,2.88-4.26,1.22-1.46-1.23-2.22-16.43-1.52-18.56,1.25-3.83,7.62-5.1,9.74-7.91-.34-.79-5.76,1.97-3.35-2.74l3.96.91c-.95-4.39-3.53-3.36-3.65-3.65-.3-.68,5.9-11.58,4.87-14-.74-1.73-7.06.03-7.91-1.83-1.06-2.73,3.58-4.58,4.26-5.48.32-.42-1.13-1.63-.61-2.43,1.7-2.6,7.99-2.07,10.65-3.35.37-.18,3.45-2.39,6.09-3.65.24-.11,2.56-2.89,4.26-3.04,3.21-.3,3.99,1.83,4.26,1.83.15,0,1.76-1.7,2.43-1.83.22-.04.95,1.5,1.83,1.22,1.38-.44,1.68-4,7.3-4.87.9-.14,7.23.27,7.91.61,2.1,1.04-1.38,1.51,0,2.43ZM236.42,12.33c4,1.6,3.47,7.33,3.65,10.95-2.63-3.12-5.65-4.65-4.26-8.52l-3.35,1.52-1.22-2.43c.45-.28,1.23-1.46,1.52-1.52,1.66-.32,2.12,1.19,2.43,1.22.17.01,1.09-1.27,1.22-1.22ZM203.25,59.49c-.06-.5-7.16-4.6-7.61-4.56-.35.03-2.06,2.38-2.43,2.43-2.69.37-4.92-1.16-7,.91,2.43-.04,2.48,4.98,2.74,5.17,3.66,2.79,12.29.47,14.3-3.96ZM192.3,58.88l-.3.91-.3-.3-.3-.91.91.3ZM180.43,384.15c1.24-.6,2.32.66,2.43.61,1.94-.88,7.4-3.02,8.52-3.65,1.76-1-2.59-2.58,0-4.87,1.75-1.55,9.67-2.77,12.17-3.65,7.44-2.64,15.88-4.8,24.34-7.3,1.44-.42,4.7-4.86,4.26,0,6.58-4.67,6.22-.37,7.91,0,.58.13,2.87-1.8,3.04-1.83,6.62-.89,14.45-4.43,18.26-4.87,2.65-.3,4.01,1.82,4.26,1.83,2.22.03,13.67-11.01,19.47-9.74,1.74.38-.74,2.16,1.22,2.43,4.74.66,18.98-6.71,23.73-7.3,1.13-.14,2.89-.14,3.96.3.39.64-12.27,6.12-11.87,8.82,6.69-3.69,11.3-10.12,19.47-6.69,1.55,1.39-25.42,17.81-27.38,18.86-37.24,19.99-83.71,29.27-125.66,22.21,2.35-.17,4.87-2.68,5.17-2.74.22-.04,1.38,1.89,4.26,1.22,1.38-.32.9-2.91,2.43-3.65ZM304.27,268.83c.4-1.55-.44-4.68,0-6.09.65-2.06,11.75-6.56,10.65-11.87.85-.18,1.52,3.74,1.52,3.96.1,3.53-8.73,27.78-13.08,26.47-4-1.2.23-9.82.91-12.48ZM58.42,181.2c3.79-4.02,4.51-3.72,10.35-1.52.2.47.54.74.61,1.22-2.53.04-7.41,2.26-10.95.3ZM164,389.02c-16.8-2.85-33.44-7.24-48.99-14.3l24.65-1.52c1.01-2.78-5.49-5.06-5.78-5.78-.88-2.18,5.27-9.88,7.61-11.26l1.52.3c1.25,1.9-5.42,7.23-4.87,7.91,3.6-.2,12.78,8.97,12.78,12.17,0,.26-2.18,3.54-1.83,4.87.31,1.15,14.12,4.18,14.91,7.61ZM58.12,168.12l2.74,2.74-.91.91c-.52.26-4.16-2.17-1.83-3.65ZM61.77,172.38c-.97-.43.23-2.57.61-2.43.97.35-.23,2.6-.61,2.43ZM399.63,206.02c-.04.5-.08.99-.12,1.49-.41.2-.82.35-.92-.14-.09-.47.5-.89,1.03-1.35ZM132.36,14.76c2.55-.8.94,2-.61,1.22-.59-.29.39-1.15.61-1.22ZM131.75,9.29c.05-.17,2.26-2.41,2.43-2.43,5.07-.61-3.9,7.59-2.43,2.43ZM123.23,11.11v-3.04c4.49-.61,1.93,1.12,0,3.04ZM126.88,19.02c4.58.22-2.08,6.29-3.65,5.48-1.02-.53-.12-5.66,3.65-5.48ZM133.58,18.41c.44-.32,1.96.05,1.52.91-.48.94-2.83.04-1.52-.91ZM128.1,24.5c5.18-.48,4.06,4.27,1.83,4.87-.36.1-5.04-1.98-6.39-1.52-.49-1.06,4.28-3.32,4.56-3.35ZM104.06,33.93c-.74-1.35,8.23-7.55,8.82-7.61.85-.08,1.68-.23,1.52.91-2.18-.38-8.6,9.88-10.35,6.69ZM104.62,18.72c1.32-.18,3-1.48,3.4-1.52,1.66-.18,3.07.34,4.56.91-1.18.32-6.04,4.1-6.39,3.96-.87-.37,1.84-3.22-1.57-3.34ZM113.8,22.98c.5-.08,1.24-.82,1.52-.91,3.89-1.22,2.21,2.35,2.43,2.43.65.24,6.26.31,6.39.91-3.79,2.22-7.46.96-10.35-2.43ZM113.49,17.8c2.46-.74,2.2,1.42,0,2.43-1.23-.41-.39-2.32,0-2.43ZM53.86,168.72l1.22,3.65c-1.15-1.31-3.24-2.19-1.22-3.65ZM51.42,181.5l3.35.91c-1.06.91-5.11.12-3.35-.91ZM41.08,172.98c-1.05-1.03,2.83-3.02,3.04-3.04,3.34-.41,11.73,5.97,14.91,7.61-7.27,3.46-10.39-7.76-17.95-4.56ZM124.45,15.98c5.06-1.41-3.13,6.6-6.39,3.35,2.15-4.12,4.27-1.45,4.56-1.52.4-.09,1.4-1.71,1.83-1.83ZM55.38,166.59l-.91,1.52c-1.33.26-3.16-3.19-1.22-4.26,1.7-.94.5,2.91,2.13,2.74ZM117.75,13.54c-1.08-.74,1.12-1.88,1.22-1.83.92.59.3,2.39-1.22,1.83Z"/>
</svg>