<?xml version="1.0" encoding="UTF-8"?>
<svg id="Layer_1" data-name="Layer 1" xmlns="http://www.w3.org/2000/svg" viewBox="0 0 483.03 483.03">
  <defs>
    <style>
      .cls-1 {
        fill: #231f20;
      }
    </style>
  </defs>
  <path class="cls-1" d="M80.11,252.96c-1.02-1,1.89-3.47,2.09-3.48,2.04-.14.17,4.87-2.09,3.48ZM126.41,53.87c-.07.04-.14.07-.22.1-.07.03-.13.05-.21.08-.53.17-1.2.3-1.75.76-.24.2-.45.46-.61.81h0c.81.65,1.4.18,1.87-.44.03-.04.05-.07.08-.11.04-.06.08-.11.12-.17.28-.42.51-.85.72-1.02,0,0,0,0,0,0h0ZM135.46,279.07c-.15-.44-.62-.41-1.04-.35-.2.03-2.49,2.08-3.13,2.44,1.83,1.24,2.91-1,4.18-2.09ZM232.22,91.11l.35.35.35-1.04-1.04-.35.35,1.04ZM145.55,88.68h.7v-.7l-.7-.7v1.39ZM170.61,35.77c.95.51,4.32-4.05.7-2.78-.88.31-1.61,2.3-.7,2.78ZM343.6,153.07c-.03-.33,4.5-3.38,1.74-5.22l-6.96,2.78c5.03,1.69,1.04,4.27-.7,4.18-2.22-.12-1.35-3.69-5.22-2.44l2.78-1.39c-3.39-4.16-9.31,8.92-8.35,11.14,1.86,4.31,11.23-1.13,12.88-1.04,2.44.13,9.13,5.83,13.23,2.78,5.26-3.92-9.3-9.75-9.4-10.79ZM483.03,241.51c0,133.38-108.13,241.51-241.51,241.51S0,374.9,0,241.51,108.13,0,241.51,0s241.51,108.13,241.51,241.51ZM459.86,176.74c.22.53.87-.36,1.54-.69-.2-.69-.41-1.38-.62-2.07-.6.92-1.47,1.47-.92,2.77ZM349.52,67.79c-5.84-5.28-7.26-15.5.35-19.84.03-.31-2.86-2.44-3.13-2.44-.37.01-5.63,3.84-5.92,4.52-2,4.77.29,19.83,8.7,17.75ZM277.47,38.9l1.39,2.78,3.83-1.74c-1.59,4.43,1.86,6.17,4.87,9.75-.2-4.15.4-10.7-4.18-12.53-.14-.06-1.19,1.41-1.39,1.39-.36-.03-.88-1.76-2.78-1.39-.34.07-1.23,1.41-1.74,1.74ZM254.5,117.57c4.91,1.47,1.33.78,1.39,2.09.33,7.3,3.51,4.08,3.83,4.53.7.96,2.98,5.94,2.09,6.96-9.61,1.18-3.9,2.61-3.83,3.13.1.72-3.3,2.13-3.48,2.78-.83,2.99,14.82-.24,15.31-3.48.37-2.4-7.6-9.79-8.35-11.83-.04-.12,1.41-1.96,1.39-2.09-.28-1.93-4.14.71.7-4.87-.48-.63-1.71-.33-2.44-.35-1.64-.04-5.08,2.24-6.61,3.13ZM252.06,124.18c-3.22,1.12-4.51,7.32-4.87,10.44,7.86-.88,6.47-3.28,8.7-9.4-.1-.7-3.64-1.11-3.83-1.04ZM175.14,34.03c.06-.08-1.44-1.31-1.39-1.39.93-1.53,6.64-2.43,4.87,2.09-1.2,3.07-7.42,2.95-9.05,6.27,2.54,2.8,7.09-.25,8.01-.35,2.09-.23,2.35,1.96,4.87,1.39.48-.11,7.51-5.93,5.72-6.84,10.52,1.13,35.58-13.94,10.29-11.96-.73.06-1.14,2.07-1.39,2.09-3.44.31-8.56,1.1-11.14,0v6.27l-1.39-3.48-4.18,3.48c3.52-5.71-.66-4.18-4.52-2.44-.65.29,1.12,1.36.35,1.74-.6.3-1.85-1.28-2.78-.7-12.16,7.64-3.31,11.09,1.74,3.83ZM170.61,42.73l-2.78,6.96,5.92-3.13c-1.74-1.85-3.64-.9-3.13-3.83ZM155.3,83.11c2.72-.32,3.77,5.34,4.87,5.57.33.07,5.83-2.69,5.92-3.13.13-.66-7.68-10.01-7.66-11.14,0-.42,4.56-5.2,4.87-6.96-8.36-1.95,3.07-8.61-6.27-7.31h0c-.62.28-1.36.94-2.15,1.7-.17.16-.33.32-.51.49-1.89,1.85-4.03,3.97-5.7,3.03t0,0s0,0,0,0c1.5-1.38,2.84-2.47,4.28-3.47.36-.25.72-.49,1.09-.72.91-.58,1.88-1.14,2.98-1.73,1.29-.69,3.49-.53,2.44-2.09-8.97-1.06-10.84,3.11-16.01,9.05-.17.19-1.99-.61-3.13,1.04-1.95,2.83.35,6.44,3.48,7.31.53-.41.93-.76,1.22-1.05.59-.6.75-1.01.67-1.32-.04-.16-.15-.29-.29-.42-.58-.5-1.82-.84-2.32-1.82-.04-.08-.08-.17-.11-.26-.06-.18-.1-.38-.11-.61-.02-.56.14-1.27.6-2.18.95,1.98,3.06,1.78,4.42,2.47.1.05.2.11.3.18.09.07.18.14.27.22.08.08.16.17.23.27,2.15,2.99-1.27,13.32-3.83,15.66-2.39,2.18-5.56.38-7.92,1.66-.09.05-.18.12-.27.18-.26.18-.52.38-.76.66-.16.18-.31.39-.46.63,2.26,2.03,4.68-.09,5.57,3.83,1.6.97,8.69,8.45,9.4,8.35,2.87-2.54-.74-5.16-.35-8.01l3.13,3.83c4.65-4.35,1.38-8.7,2.09-13.92ZM134.41,48.3c.4.17,5.96-4.16,7.31-4.52-1.71-.66-3.32-1.25-5.22-1.04-.45.05-2.38,1.54-3.88,1.74,3.91.14.8,3.4,1.8,3.83ZM143.81,54.22c.18-1.3-.76-1.14-1.74-1.04-.68.06-10.94,7.16-10.09,8.7,2,3.64,9.34-8.09,11.83-7.66ZM167.48,45.17c.5-.99-1.23-1.41-1.74-1.04-1.49,1.09,1.19,2.12,1.74,1.04ZM166.43,30.9c-.2.02-2.73,2.6-2.78,2.78-1.68,5.89,8.58-3.48,2.78-2.78ZM163.65,41.34c1.78.89,3.61-2.31.7-1.39-.25.08-1.37,1.06-.7,1.39ZM159.47,51.09c-.32.03-5.78,2.62-5.22,3.83,1.55-.53,6.9,1.85,7.31,1.74,2.55-.68,3.83-6.12-2.09-5.57ZM158.08,44.82c-4.32-.21-5.34,5.66-4.18,6.27,1.8.93,9.42-6.01,4.18-6.27ZM153.9,35.77c2.21-2.2,5.14-4.18,0-3.48v3.48ZM147.99,45.17c3.73,3.72,13.1-5.45,7.31-3.83-.49.14-1.64,1.99-2.09,2.09-.34.08-2.76-2.98-5.22,1.74ZM147.64,38.55c1.73.65,2.44-1.41,1.39-2.09-.11-.07-2.63,1.24-1.39,2.09ZM144.85,48.3c-.33.1-1.16.96-1.74,1.04,3.3,3.88,7.5,5.33,11.83,2.78-.15-.69-6.56-.77-7.31-1.04-.26-.1,1.66-4.19-2.78-2.78ZM142.77,46.21c2.52-1.16,2.81-3.63,0-2.78-.44.13-1.41,2.31,0,2.78ZM143.81,425.95c-1.32-1.21-2.63,1.74-3.13,1.74-1.74.01-11.09-5.2-11.49-6.61-.55-1.97,2.04-2.86,2.09-3.48.04-.48-4.31-5.78-4.87-8.35-.1-.43,4.06-4.57-2.09-6.96,5.87-4.52,1.7-2.81,1.39-4.87-.92-6.14,1.11-4.93,1.39-6.27.47-2.23-.1-5.97,0-6.27.3-.88,16.12-3.03,1.39-10.44.17-.57,6.51.86,8.01.35,1.06-.37,11.16-17.8,11.49-19.14.76-3.13-.49-7.25,0-9.05,1.06-3.85,11.75-4.06,15.31-9.05.32-.45,3.41-9.76,3.48-10.44.33-3.41-2.06-7.61-.7-11.14,1.46-3.78,11.48-7.82,9.05-16.71-.35-1.28-11.86-10.14-13.57-10.79-1.78-.67-8.62-.55-9.05-.7-1.13-.37-.17-2.72-2.09-3.48-1.38-.55-9.79-1.73-10.44-2.09-.78-.43.98-1.32.35-1.74-1.08-.72-3.02-.92-3.13-1.04-.75-.79-.1-2.06-.35-2.44-.38-.57-1.35,1-2.09-.7-.1-.22,1.01-2.76,0-4.87-3.76-7.89-9.38-7.35-17.06-7.31,1.51-6.82-.91-2.51-2.09-3.48-3.24-2.67-7.6-7.34-5.92-11.49-3.17,3.57-1.66,1.59-4.18,1.74-5.56.33-2.54-1.5-4.52-2.09-1.22-.36-5.64,1.95-8.35,1.39-2.12-.43-3.25-3.57-4.87-3.48-.2.01-1.79,1.93-3.48,2.09-.61.06-.07-2.03-.7-2.09-2.22-.19-13.06,8.85-13.23,12.53-1.86-7.53-12.89,1.7-13.57-10.09-.52-8.94,7.93-11.09-9.75-12.53,3.25-2,10.21-18.72,1.74-14.27-2.81,1.48-2.24,5.9-4.87,6.96-2.9,1.17-9.88-1.54-10.79-5.22,1.49-5.8,2.05-18.28,6.61-22.62,4.43-4.22,10.02.39,13.23-.7,1.84-.62-.21-3.3,1.39-3.48,1.84-.21,10.73,1.96,11.49,3.83.39.97-1.33,10.51,1.74,11.49,3.31,1.05,2.27-7.91,2.44-9.75.21-2.28-.37-6.97,0-8.01,1.03-2.89,15.83-8.53,18.8-11.83.22-.24,3.15-4.97,3.48-5.57.93-1.67-4.01.42,2.09-4.87.26-.23-.42-1.91.35-2.44.53-.36,1.79,1.28,2.78.7,5.73-3.35,7.32-4.4,14.62-4.87-2.14-2.53-6.02.84-2.44-5.22,1.97-3.33,19.66-12.19,11.83-4.87,1.93.45,17.13-3.77,17.4-4.87.17-.71-1.62-2.24-3.13-1.74-1.33.44,1,4.65-4.18-2.09l-2.44,2.44c1.11-1.01.52-4.7.7-4.87.84-.78,3.79.22,4.18-1.39,1.12-4.61-13.47.69-14.97,3.13-2.13-.04,1.26-2.7,1.39-2.78,9.37-6.22,17.06-3.31,27.15-5.57l-7.31,7.31c2.09,2.88,8.56.1,5.92,3.83,3.5-3.97,4.51,1.15,6.27,1.39,5.88.81,1.19-6.73,2.44-9.4h-4.18l1.04-3.13-3.13,1.74c-.06-2.59,6.01-4.06,6.27-4.87.52-1.64-1.43-2.61-1.39-2.78.17-.79,2.08-2.61,2.09-2.78.15-2.61-7.13-6.03-7.66-9.75-.4-2.8,2.5-7.69,1.39-11.14-1.04-2.65-9.44,4.58-11.83,1.39,1.27-4.81,5.16-5.78,3.48-10.79h0s0,0,0,0c-8.35-4.2-10.02-2.4-12.1,1.47-.1.18-.2.37-.3.57-.17.32-.34.65-.52,1-.15.28-.3.56-.46.85-.36.65-.75,1.32-1.19,2.01-.15.23-.3.46-.47.69-.49.7-1.04,1.41-1.67,2.12.11.04.2.1.27.2,1.03,1.37-2.21,8.36-3.05,9.55-2.69,3.82-5.81,1.23-7.66,4.18-.62.99-1.54,8.97-4.52,9.4-.51.07-.96.1-1.34.08-.04,0-.08,0-.12-.01-.26-.02-.5-.06-.71-.12-2.81-.82-.59-5.18,1.09-8.1.14-.24.27-.46.39-.68.2-.33.38-.64.53-.91.02-.03.04-.06.05-.09.11-.19.2-.36.27-.5,0,0,0-.01,0-.02.12-.23.18-.39.16-.45-.22-.8-4.86-2.09-5.92-3.13-1.32-1.31-3.53-4.96-5.57-6.96,0,0-.03,0-.07.04-.05.05-.13.14-.23.24-.37.37-.99.86-1.44.06-.09-.16.23-1.61.65-3.25.03-.11.06-.22.08-.33.48-1.86,1.04-3.88,1.27-4.54.04-.11.07-.2.09-.23.33-.58.75-1.14,1.24-1.7,1.24-1.42,2.93-2.77,4.81-4.02.6-.4,1.21-.79,1.83-1.17.18-.11.35-.21.53-.32,1.2-.71,2.42-1.39,3.61-2.02.47-.25.93-.49,1.38-.72,1.65-.85,3.16-1.6,4.35-2.22.22-.11.45-.32.68-.57.01-.01.03-.03.04-.05.52-.56,1.07-1.31,1.57-1.79.17-.16.34-.3.49-.38h0c.18-.09.69,1.61,3,.88.15-.05.32-.11.48-.18,1.08-.46,1.74-1.15,2.25-1.9.11-.16.22-.33.32-.5.08-.14.17-.29.25-.44.1-.19.2-.37.3-.56.18-.32.36-.63.56-.93.14-.21.3-.42.47-.61.02-.02.04-.05.06-.08.2-.21.44-.39.7-.56.08-.05.15-.1.23-.15.55-.3,1.25-.5,2.16-.55l1.04-9.75c-3.26,1.43-5.43,4.77-9.4,3.83-.24-.75,14.44-7.47,10.09-10.79-2.81-2.14-8.84,9.21-11.83,9.75-.85.15-7.19-5.48-7.66-5.57-1.58-.31-3.41,2.43-6.61-.35,4.3-4.33,9.52,1.1,10.09,1.04.76-.07,1.24-2.57,2.09-2.78.76-.19,10.29.22,8.01-3.83-.68-1.2-2.43,2.52-3.48,1.39,4.3-7.34,10.23-10.71,17.4-14.62-4.34-.88-9.36,1.69-13.23,3.83.79-.67,3.6-3.16,3.83-4.18-4.8,1.4-8.13.43-12.88,1.04,2.48-1.85,5.2-2.15,8.01-3.83.8-.48-.11-2.32.7-2.78.24-.14,4.13.09,5.57-.7,1.07-.58,1.06-2.29,2.09-2.78,2.05-.98,6.58-.75,8.7-3.13-3.66-3.96-28.48,10.85-28.54,12.53-.03.77,2.12.71,2.09,2.09,0,.35-4.05,5-4.18,5.57-.23,1.03,3.14,4.4,1.74,5.22-3.2-1.71-5.8,2.43-9.4,1.74,9.82-4.84,1.42-3.5,4.18-9.05l-3.83-.35c-.71-.77,2.02-1.17,1.74-1.74-.77-1.59-16.49,11.82-18.45,13.57C50.21,100.6,22.94,145.27,12.94,194.84c1.26,5.35-1.09,15.52,2.78,18.8.67-6.27-1.3-12.57-.7-18.8.04-.46.55-6.67,2.09-5.57-2.28,8.94,1.46,17.19,2.78,25.76.78,5.02-2.46,7,.7,11.83,4.08,6.25,10.93,6.14,14.97,8.01,1.68.78,16.21,13.39,17.75,15.66.28.41-.28,2.25,0,2.78,1.12,2.15,2.75-.05,3.13.35,1.18,1.21,4.64,6.4,6.27,6.27.88-.07,2.76-5.17,5.92-1.04,3.88,5.08-.03,14.47-2.09,18.8-.21.44-2.87.76-3.48,2.78-1.32,4.4,1.96,7.69,2.09,9.05.04.4-3.14,1.64-.7,6.96.51,1.11,11.75,19.94,12.53,20.88,4.23,5.13,12.68,4.22,16.01,10.44,5.45,10.17,7.96,46.77,13.23,61.96,1.79,5.16,10.22,22.23,14.03,28.17.34.21.56.5.58.86.27.38.51.69.7.9,2.67,2.82,6.77,3.98,10.09,5.92.73.42-.03,1.7.7,2.09.26.14.3-1.97,1.39-1.39,3.11,1.64,4.04,7.18,10.09-.35ZM80.46,226.16c-3.64-1.87-13.24-9.17-17.06-8.7-.24.03-4.68,2.31-3.48,3.48,8.65-3.66,12.22,9.18,20.54,5.22ZM71.76,230.69c-2.02,1.18,2.61,2.09,3.83,1.04l-3.83-1.04ZM76.29,213.63c-1.86.2-.49-4.2-2.44-3.13-2.22,1.22-.13,5.17,1.39,4.87l1.04-1.74ZM74.54,216.07c-2.31,1.67.08,2.68,1.39,4.18l-1.39-4.18ZM81.51,219.55l1.04-1.04-3.13-3.13c-2.67,1.7,1.49,4.48,2.09,4.18ZM79.77,230.34c4.06,2.23,9.63-.3,12.53-.35-.08-.54-.46-.85-.7-1.39-6.68-2.52-7.5-2.85-11.83,1.74ZM83.59,220.25c.44.19,1.81-2.38.7-2.78-.44-.16-1.8,2.29-.7,2.78ZM200.55,468.07c-.9-3.92-16.7-7.39-17.06-8.7-.41-1.52,2.09-5.27,2.09-5.57,0-3.67-10.5-14.15-14.62-13.92-.63-.78,7-6.88,5.57-9.05l-1.74-.35c-2.68,1.57-9.7,10.39-8.7,12.88.33.83,7.77,3.43,6.61,6.61l-28.19,1.74c17.78,8.08,36.82,13.09,56.04,16.36ZM202.63,89.37c2.62-1.67,13.28-7.06,16.01-8.35,3.42-1.62,10.69-2.95,14.62-4.87l-5.22-3.13c2.06-8.41,3.27,2.68,7.66.7l-3.48-7.66c1.67-2.16,3.2,2.57,4.18-1.39-3.35-4.01.19-1.59.35-1.74,3.51-3.42,3.89-8.17,4.52-12.88.07-.48-1.61.08-1.39-1.39.03-.2,3.34-1.8,3.48-2.09,1.23-2.48-2.03-1.2-2.09-1.39-1.21-3.8,6.68-8.39,9.75-9.75-2.8-2.8-5.59.41-5.92.35-.32-.06-1.1-5-4.87-1.39l3.83-3.83c-.86-2-5.91-1.97-6.61-2.44-1.58-1.06,2.41-1.59,0-2.78-.78-.38-8.02-.85-9.05-.7-6.44.99-6.77,5.07-8.35,5.57-1,.32-1.84-1.44-2.09-1.39-.77.14-2.61,2.08-2.78,2.09-.3.01-1.2-2.43-4.87-2.09-1.95.18-4.6,3.35-4.87,3.48-3.02,1.44-6.53,3.97-6.96,4.18-3.04,1.46-10.24.85-12.18,3.83-.6.92,1.06,2.3.7,2.78-.78,1.03-6.09,3.15-4.87,6.27.98,2.13,8.21.11,9.05,2.09,1.18,2.76-5.91,15.23-5.57,16.01.14.33,3.09-.85,4.18,4.18l-4.52-1.04c-2.76,5.38,3.44,2.23,3.83,3.13-2.43,3.22-9.71,4.67-11.14,9.05-.8,2.44.07,19.83,1.74,21.23,2.27,1.91,4.59-1.47,4.87-1.39.35.1-1.47,6.13,3.48,4.87,1.14-.29,9.65-14.94,14.62-18.1ZM236.74,85.89c-.4.03-2.36,2.73-2.78,2.78-3.08.42-5.63-1.33-8.01,1.04,2.78-.04,2.84,5.7,3.13,5.92,4.19,3.19,14.06.54,16.36-4.52-.07-.57-8.19-5.27-8.7-5.22ZM380.84,421.43c-9.35-3.92-14.62,3.44-22.28,7.66-.46-3.09,14.02-9.36,13.57-10.09-1.22-.51-3.23-.51-4.52-.35-5.44.67-21.73,9.11-27.15,8.35-2.24-.31.59-2.35-1.39-2.78-6.64-1.45-19.74,11.18-22.28,11.14-.29,0-1.84-2.44-4.87-2.09-4.36.5-13.31,4.56-20.88,5.57-.2.03-2.82,2.24-3.48,2.09-1.93-.43-1.52-5.34-9.05,0,.5-5.55-3.23-.49-4.87,0-9.68,2.86-19.34,5.34-27.85,8.35-2.86,1.01-11.92,2.41-13.92,4.18-2.96,2.62,2.01,4.43,0,5.57-1.28.73-7.53,3.17-9.75,4.18-.13.06-1.36-1.39-2.78-.7-1.75.85-1.21,3.81-2.78,4.18-3.29.78-4.62-1.44-4.87-1.39-.35.07-3.23,2.94-5.92,3.13,48,8.08,101.16-2.54,143.75-25.41,2.25-1.21,33.1-19.99,31.33-21.58ZM361,330.58c-.78,3.04-5.62,12.9-1.04,14.27,4.98,1.5,15.08-26.25,14.97-30.28,0-.24-.77-4.73-1.74-4.53,1.26,6.07-11.44,11.22-12.18,13.57-.5,1.6.45,5.18,0,6.96ZM441.41,250.18c-.98-.11-1.55,9.25,2.09,9.05,1.17-.95-.27-8.85-2.09-9.05ZM462.64,263.75c-.35-.68-2.54-10.7-5.92-8.7l9.05,22.97c3.59-8.82-.61-9.34-3.13-14.27ZM469.88,221.68c-.05-.61-.11-1.22-.16-1.82-.53,1.64-1.44,2.44-2.9.04-.71-1.17-2.52-22.79-3.48-27.15-.95-4.32-8.5-26.4-8.35-27.85.1-.97,1.38-1.29,2.05-2.27-.34-.95-.69-1.89-1.04-2.84-.22.38-.65.6-1.35.58-1.93-.04-14.37-29.76-17.06-34.46-14.93-26.15-43.04-58.22-69.61-72.75h0s0,0,0,0c-.06,1.12-4.79,2.91-3.48,6.61.9,2.55,9.5,1.66,10.44,5.57l-4.52-2.44c-2.2.73,1.56,2.59,0,2.78-.94.12-1.95-1.5-3.13-.35,2.12,6.03,8.13,7.25,13.23,9.75-6.61-2.04-4.81,4.71-3.83,8.01-4.49-6.99-9.32-10.62-17.4-13.23l-.7,1.39c.74,2.7,8.61,3.79,6.96,6.27-4.74,2.67-3.17-.81-6.27-.7-.31.01-4.12,2.42-5.57,2.78-.27.07-3.8-1.05-5.57,0-.47.28-3.83,5.5-4.18,5.57-.69.13-8.94-12.13-3.13,1.74-9.41-2.63-1.45,6.95-9.4,3.83v2.78l-6.61-6.61c2.74-.56,14.78,1.86,9.4-3.13-4.24-3.94-11.86-4.54-16.71-6.27-.42-.15.06-2.01-2.09-2.78-7.07-2.54-9.37,4.11-13.92,2.09-6.69,10.88-13.23,19.39-23.32,27.5,2,3.19-.3,7.41,2.44,9.4,2.69.79,5.4-4.37,8.35-3.48.44.13,4.49,7.55,4.53,8.01.03.34-4.83,4.31,1.74,2.44,6.22-1.77,3.72-6.66,4.52-8.7.08-.21,3.22-.49,3.48-2.78.35-3.08-3.66-2.8-2.78-5.92h0c.38-1.35,5.79-9.37,6.96-10.44h0c10.45-9.61,2.29,2.56,2.09,3.13-2.66,7.65-1.51,6.41,4.18,9.75.08.04-1.54,1.45-.35,1.74.61.15,7.58-6.23,11.49-1.74l-11.49,2.44,4.18,2.78c-.38,3.85-5.44-1.52-6.27-1.39-2.11,3.79,1.01,6.24,1.04,6.61.22,2.19-3.45-1.29-4.18.7-1.35,3.7,2.24,6.43-5.92,6.61-.2,0-.76-2.12-1.39-2.09-.23.01-3.6,2.09-4.18,2.09-16.14.01-4.2-1.06-8.35-9.75-5.32,3.24-5.55,5.4-2.44,10.79-1.83,1.54-8.02,3.88-9.4,5.22-2.58,2.5-1.03,4.05-2.78,5.57-.85.73-3.35.58-3.48.7-1.35,1.22-2.56,4.06-2.78,4.18-2.49,1.32-9.88-.67-12.88,2.44-.11.81,10.55,5.29,6.27,13.23-1.52,2.82-9.04,0-12.18,1.04-3.43,1.15-5.25,18.89-4.53,19.84.6.78,4.84-.35,5.92.35,1.69,7.39-8.03,10.74-11.49,15.66-.21.3-.96,5.31-2.09,6.96-2.39,3.5-10.1,9.23-12.53,13.92-4.13,7.97-2.92,18.76-4.87,27.85,5.14,5.21,13.76,20.16,21.23,21.23.79.11,14.74-.54,16.01-.7.39-.05,5.78-3.34,6.96-3.48,9.4-1.12,7.52,4.77,10.44,6.27,3.25,1.67,8.4-2.62,10.09,1.74,2.07,5.31-4.17,9.18-4.18,9.75-.01,2.98,7.77,10.09,9.05,13.23,6.78,16.63-2.64,22.33-1.39,35.5.86,9.07,8.15,26.22,11.14,35.5.13.4-1.62,6.15,2.44,7.31.57.16,10.96-.53,11.83-.7,8.94-1.74,15.73-10.94,21.23-17.75,1.38-1.71-.09-2.68,0-2.78,1.56-2,7.25-3.94,8.35-6.27,1.45-3.04-.54-7.5,0-9.05.49-1.42,13.04-9.86,13.92-11.83,2.86-6.41-2.72-20.74-.7-28.54,2.88-11.09,31.09-26.55,29.24-43.16-.27-.88-.83.5-1.39.35h0c-3.69,3.17-11.86,4.81-16.01,1.04-11.22-10.17-18.87-31.74-23.67-45.94l-4.18-6.27c14.87,13.74,19.59,33.94,28.89,50.47l15.66-6.27s0,0,0,0c.69-.45,2.07-3.19,2.44-3.48,1.73-1.36,8.75-3.84,10.09-6.61.18-.37-.76-4.8,1.39-7.66,1.51-2.01,4.28.15,4.18-3.48-.15-4.98-4.56-4.33-5.92-5.22-.84-.55-3.07-3.43-3.48-3.48-.95-.12-3.88,3.53-6.96,2.78-1.15-.28-11.61-13.5-9.75-14.62,3.58-2.16,6.82,4.44,9.05,5.57,1.5.76,17.75,6.85,18.8,6.96,6.5.67,9.61-3.68,17.06,2.44.37.3-1.07.7.35,2.44.33.41,2.91.62,3.13,1.04.49.93-1.73,1.67-1.39,2.78,1.69,5.65,5.15,3.33,5.83-.89.53,8.22,7.49,32.82,9.14,33.26,1.34.11,1.4-.8,1.74-1.74,3.84-10.59,2.95-21.2,11.14-32.02,7.41-9.79,8.2,9.37,9.75,11.14.61.69,1.21-.71,1.74-1.04,4.82,6.36-1.16,27.04,5.92,33.07-.57-2.23-.1-6.57-.7-8.7-1.84-6.54-.47-13.36,0-19.49.73-5.02-1.66-10.25,2.37-12.48ZM469.96,260.44c.05-.57.09-1.14.13-1.7-.61.53-1.29,1.01-1.18,1.54.12.57.58.39,1.05.16ZM338.03,179.52l2.09-2.78c-2.66-2.71-4.48-.33-5.22-.35-.16,0-1.67-1.31-2.78-1.39-.26-.02-1.79,2.08-2.09,2.09-.88.02-7.24-6.13-7.31-6.61-.03-.22,1.78-.96,1.39-2.78-.64-3.02-6.24-1.7-6.96-.7-.62.86,5.48,4.36-4.18,4.87l8.35,5.57c-5.92,4.06-11.94-7.54-14.62-11.83-.32-.5.32-2.97,0-3.48-.58-.94-12.71-7.16-14.27-10.09-.31,7.35,13.3,11.87,14.97,15.66.49,1.12.89,1.61-.35,2.44l-3.48-3.48c-.03,3.8-1.09,4.39-3.48,6.96,2.23-9.76-4.51-8.65-9.75-12.53-.23-.17-1.9-4.37-2.78-4.87-4.28-2.45-4.9,1.82-6.27,2.09-2.03.4-9.38-.32-9.75,0-.86.74,0,3.37-.35,3.83-1.28,1.67-4.93,1.28-6.96,4.87-.28.5.3,3.16-.7,4.87-2.68,4.59-14.88,5.6-10.09,8.01,3.43,1.73,11.22-3.06,14.62-3.48,4.88-.61,9.8.53,14.62.7.19,0,1.52-2.2,3.48-1.39.23.09,3.08,3.59,3.13,3.83.36,1.73-1.75,3.14-1.39,4.87.36,1.73,17.89,10.47,19.84,9.4.74-.41,2.58-5.37,4.18-5.57.69-.09,10.16,3.96,13.23,4.18,5.18.36,10.13-2.3,15.32-.7,2.47-1.63,8.34-15.05,6.27-16.71-3.79-.27-2.87,6.94-8.7,4.52ZM428.88,217.46c-.14.44-.16,1.25-.09,2.24.11-.71.16-1.46.09-2.24Z"/>
</svg>